<svg id="visual" viewBox="0 0 900 600" width="900" height="600" xmlns="http://www.w3.org/2000/svg" xmlns:xlink="http://www.w3.org/1999/xlink" version="1.1"><g stroke-width="1" stroke-linejoin="bevel"><path d="M492 316L538 398L590 275Z" fill="#15384f" stroke="#15384f"></path><path d="M538 398L581 435L590 275Z" fill="#246688" stroke="#246688"></path><path d="M661 226L622 224L590 275Z" fill="#00101c" stroke="#00101c"></path><path d="M590 275L467 188L492 316Z" fill="#246688" stroke="#246688"></path><path d="M710 268L661 226L590 275Z" fill="#00101c" stroke="#00101c"></path><path d="M415 492L509 486L538 398Z" fill="#1d4e6b" stroke="#1d4e6b"></path><path d="M538 398L509 486L581 435Z" fill="#1d4e6b" stroke="#1d4e6b"></path><path d="M709 423L710 268L590 275Z" fill="#1d4e6b" stroke="#1d4e6b"></path><path d="M509 486L638 481L581 435Z" fill="#277297" stroke="#277297"></path><path d="M581 435L709 423L590 275Z" fill="#297ea6" stroke="#297ea6"></path><path d="M366 309L391 363L492 316Z" fill="#297ea6" stroke="#297ea6"></path><path d="M492 316L391 363L538 398Z" fill="#00101c" stroke="#00101c"></path><path d="M607 115L467 188L622 224Z" fill="#205a7a" stroke="#205a7a"></path><path d="M622 224L467 188L590 275Z" fill="#00101c" stroke="#00101c"></path><path d="M638 481L709 423L581 435Z" fill="#246688" stroke="#246688"></path><path d="M467 188L366 309L492 316Z" fill="#297ea6" stroke="#297ea6"></path><path d="M467 188L412 179L366 309Z" fill="#246688" stroke="#246688"></path><path d="M391 363L415 492L538 398Z" fill="#277297" stroke="#277297"></path><path d="M685 600L719 525L638 481Z" fill="#1d4e6b" stroke="#1d4e6b"></path><path d="M281 468L415 492L391 363Z" fill="#081a28" stroke="#081a28"></path><path d="M709 423L779 363L710 268Z" fill="#19435d" stroke="#19435d"></path><path d="M708 80L607 115L661 226Z" fill="#15384f" stroke="#15384f"></path><path d="M661 226L607 115L622 224Z" fill="#205a7a" stroke="#205a7a"></path><path d="M467 188L471 120L412 179Z" fill="#00101c" stroke="#00101c"></path><path d="M708 80L661 226L776 124Z" fill="#1d4e6b" stroke="#1d4e6b"></path><path d="M607 115L471 120L467 188Z" fill="#246688" stroke="#246688"></path><path d="M638 481L719 525L709 423Z" fill="#19435d" stroke="#19435d"></path><path d="M709 423L803 487L779 363Z" fill="#00101c" stroke="#00101c"></path><path d="M625 600L638 481L509 486Z" fill="#112e42" stroke="#112e42"></path><path d="M779 363L806 262L710 268Z" fill="#205a7a" stroke="#205a7a"></path><path d="M412 179L319 217L366 309Z" fill="#081a28" stroke="#081a28"></path><path d="M366 309L288 386L391 363Z" fill="#205a7a" stroke="#205a7a"></path><path d="M396 97L319 217L412 179Z" fill="#00101c" stroke="#00101c"></path><path d="M319 217L294 301L366 309Z" fill="#205a7a" stroke="#205a7a"></path><path d="M415 492L499 600L509 486Z" fill="#246688" stroke="#246688"></path><path d="M294 301L288 386L366 309Z" fill="#0c2435" stroke="#0c2435"></path><path d="M415 492L420 600L499 600Z" fill="#205a7a" stroke="#205a7a"></path><path d="M499 600L625 600L509 486Z" fill="#297ea6" stroke="#297ea6"></path><path d="M512 0L396 97L471 120Z" fill="#246688" stroke="#246688"></path><path d="M471 120L396 97L412 179Z" fill="#19435d" stroke="#19435d"></path><path d="M785 600L803 487L719 525Z" fill="#112e42" stroke="#112e42"></path><path d="M719 525L803 487L709 423Z" fill="#19435d" stroke="#19435d"></path><path d="M779 363L900 370L806 262Z" fill="#081a28" stroke="#081a28"></path><path d="M776 124L661 226L710 268Z" fill="#297ea6" stroke="#297ea6"></path><path d="M607 115L512 0L471 120Z" fill="#15384f" stroke="#15384f"></path><path d="M625 600L685 600L638 481Z" fill="#246688" stroke="#246688"></path><path d="M306 600L420 600L415 492Z" fill="#0c2435" stroke="#0c2435"></path><path d="M806 262L776 124L710 268Z" fill="#19435d" stroke="#19435d"></path><path d="M166 401L281 468L288 386Z" fill="#00101c" stroke="#00101c"></path><path d="M288 386L281 468L391 363Z" fill="#246688" stroke="#246688"></path><path d="M900 272L831 164L806 262Z" fill="#00101c" stroke="#00101c"></path><path d="M806 262L831 164L776 124Z" fill="#15384f" stroke="#15384f"></path><path d="M631 0L512 0L607 115Z" fill="#00101c" stroke="#00101c"></path><path d="M712 0L631 0L708 80Z" fill="#19435d" stroke="#19435d"></path><path d="M708 80L631 0L607 115Z" fill="#19435d" stroke="#19435d"></path><path d="M712 0L708 80L823 0Z" fill="#19435d" stroke="#19435d"></path><path d="M803 487L900 370L779 363Z" fill="#277297" stroke="#277297"></path><path d="M900 370L900 272L806 262Z" fill="#00101c" stroke="#00101c"></path><path d="M685 600L785 600L719 525Z" fill="#1d4e6b" stroke="#1d4e6b"></path><path d="M803 487L900 510L900 370Z" fill="#0c2435" stroke="#0c2435"></path><path d="M371 0L318 61L396 97Z" fill="#112e42" stroke="#112e42"></path><path d="M396 97L318 61L319 217Z" fill="#297ea6" stroke="#297ea6"></path><path d="M319 217L195 262L294 301Z" fill="#205a7a" stroke="#205a7a"></path><path d="M281 468L306 600L415 492Z" fill="#00101c" stroke="#00101c"></path><path d="M823 0L708 80L776 124Z" fill="#00101c" stroke="#00101c"></path><path d="M202 193L195 262L319 217Z" fill="#19435d" stroke="#19435d"></path><path d="M294 301L195 262L288 386Z" fill="#112e42" stroke="#112e42"></path><path d="M281 468L178 526L306 600Z" fill="#277297" stroke="#277297"></path><path d="M318 61L202 193L319 217Z" fill="#15384f" stroke="#15384f"></path><path d="M512 0L371 0L396 97Z" fill="#205a7a" stroke="#205a7a"></path><path d="M318 61L206 64L202 193Z" fill="#112e42" stroke="#112e42"></path><path d="M900 272L900 165L831 164Z" fill="#112e42" stroke="#112e42"></path><path d="M831 164L900 113L776 124Z" fill="#0c2435" stroke="#0c2435"></path><path d="M785 600L900 510L803 487Z" fill="#246688" stroke="#246688"></path><path d="M91 299L166 401L195 262Z" fill="#205a7a" stroke="#205a7a"></path><path d="M195 262L166 401L288 386Z" fill="#297ea6" stroke="#297ea6"></path><path d="M900 165L900 113L831 164Z" fill="#0c2435" stroke="#0c2435"></path><path d="M166 401L178 526L281 468Z" fill="#00101c" stroke="#00101c"></path><path d="M371 0L291 0L318 61Z" fill="#205a7a" stroke="#205a7a"></path><path d="M900 113L823 0L776 124Z" fill="#00101c" stroke="#00101c"></path><path d="M785 600L900 600L900 510Z" fill="#277297" stroke="#277297"></path><path d="M291 0L206 64L318 61Z" fill="#112e42" stroke="#112e42"></path><path d="M60 226L91 299L195 262Z" fill="#205a7a" stroke="#205a7a"></path><path d="M178 526L195 600L306 600Z" fill="#0c2435" stroke="#0c2435"></path><path d="M60 226L195 262L202 193Z" fill="#246688" stroke="#246688"></path><path d="M166 401L66 485L178 526Z" fill="#081a28" stroke="#081a28"></path><path d="M178 526L104 600L195 600Z" fill="#15384f" stroke="#15384f"></path><path d="M91 299L90 392L166 401Z" fill="#277297" stroke="#277297"></path><path d="M900 113L900 0L823 0Z" fill="#112e42" stroke="#112e42"></path><path d="M291 0L208 0L206 64Z" fill="#246688" stroke="#246688"></path><path d="M69 111L60 226L202 193Z" fill="#0c2435" stroke="#0c2435"></path><path d="M69 111L202 193L206 64Z" fill="#112e42" stroke="#112e42"></path><path d="M91 299L0 378L90 392Z" fill="#297ea6" stroke="#297ea6"></path><path d="M0 378L66 485L90 392Z" fill="#0c2435" stroke="#0c2435"></path><path d="M90 392L66 485L166 401Z" fill="#15384f" stroke="#15384f"></path><path d="M66 485L104 600L178 526Z" fill="#19435d" stroke="#19435d"></path><path d="M84 0L69 111L206 64Z" fill="#00101c" stroke="#00101c"></path><path d="M0 284L0 378L91 299Z" fill="#277297" stroke="#277297"></path><path d="M66 485L0 509L104 600Z" fill="#297ea6" stroke="#297ea6"></path><path d="M0 284L91 299L60 226Z" fill="#297ea6" stroke="#297ea6"></path><path d="M0 198L0 284L60 226Z" fill="#0c2435" stroke="#0c2435"></path><path d="M0 138L0 198L60 226Z" fill="#00101c" stroke="#00101c"></path><path d="M208 0L84 0L206 64Z" fill="#277297" stroke="#277297"></path><path d="M69 111L0 138L60 226Z" fill="#205a7a" stroke="#205a7a"></path><path d="M0 378L0 509L66 485Z" fill="#112e42" stroke="#112e42"></path><path d="M0 0L0 138L69 111Z" fill="#297ea6" stroke="#297ea6"></path><path d="M0 509L0 600L104 600Z" fill="#15384f" stroke="#15384f"></path><path d="M84 0L0 0L69 111Z" fill="#297ea6" stroke="#297ea6"></path></g></svg>